<svg width="296" height="49" viewBox="0 0 296 49" fill="none" xmlns="http://www.w3.org/2000/svg">
<path d="M32.378 40.64H16.378L13.946 48H0.762L17.21 2.88H31.674L48.058 48H34.81L32.378 40.64ZM29.242 31.04L24.378 16.448L19.578 31.04H29.242ZM64.6905 17.088C65.6718 15.3813 67.0585 14.0587 68.8505 13.12C70.6425 12.1387 72.7545 11.648 75.1865 11.648C78.0452 11.648 80.6265 12.3947 82.9305 13.888C85.2772 15.3813 87.1118 17.5147 88.4345 20.288C89.7998 23.0613 90.4825 26.304 90.4825 30.016C90.4825 33.728 89.7998 36.992 88.4345 39.808C87.1118 42.5813 85.2772 44.7147 82.9305 46.208C80.6265 47.7013 78.0452 48.448 75.1865 48.448C72.7545 48.448 70.6425 47.9787 68.8505 47.04C67.0585 46.0587 65.6718 44.7147 64.6905 43.008V48H52.1465V0.639999H64.6905V17.088ZM77.7465 30.016C77.7465 27.6693 77.1065 25.856 75.8265 24.576C74.5892 23.2533 73.0532 22.592 71.2185 22.592C69.3838 22.592 67.8265 23.2533 66.5465 24.576C65.3092 25.8987 64.6905 27.712 64.6905 30.016C64.6905 32.3627 65.3092 34.1973 66.5465 35.52C67.8265 36.8427 69.3838 37.504 71.2185 37.504C73.0532 37.504 74.5892 36.8427 75.8265 35.52C77.1065 34.1547 77.7465 32.32 77.7465 30.016ZM112.351 48.448C108.767 48.448 105.545 47.7013 102.687 46.208C99.8705 44.7147 97.6518 42.5813 96.0305 39.808C94.4092 37.0347 93.5985 33.7707 93.5985 30.016C93.5985 26.304 94.4092 23.0613 96.0305 20.288C97.6945 17.5147 99.9345 15.3813 102.751 13.888C105.609 12.3947 108.831 11.648 112.415 11.648C115.999 11.648 119.199 12.3947 122.015 13.888C124.873 15.3813 127.113 17.5147 128.735 20.288C130.399 23.0613 131.231 26.304 131.231 30.016C131.231 33.728 130.399 36.992 128.735 39.808C127.113 42.5813 124.873 44.7147 122.015 46.208C119.156 47.7013 115.935 48.448 112.351 48.448ZM112.351 37.568C114.1 37.568 115.551 36.928 116.703 35.648C117.897 34.3253 118.495 32.448 118.495 30.016C118.495 27.584 117.897 25.728 116.703 24.448C115.551 23.168 114.121 22.528 112.415 22.528C110.708 22.528 109.279 23.168 108.127 24.448C106.975 25.728 106.399 27.584 106.399 30.016C106.399 32.4907 106.953 34.368 108.062 35.648C109.172 36.928 110.601 37.568 112.351 37.568ZM173.07 12.096V48H160.462V42.88C159.395 44.5013 157.923 45.824 156.046 46.848C154.169 47.8293 152.014 48.32 149.582 48.32C145.401 48.32 142.094 46.9547 139.662 44.224C137.273 41.4507 136.078 37.696 136.078 32.96V12.096H148.558V31.36C148.558 33.408 149.091 35.0293 150.158 36.224C151.267 37.376 152.718 37.952 154.51 37.952C156.345 37.952 157.795 37.376 158.862 36.224C159.929 35.0293 160.462 33.408 160.462 31.36V12.096H173.07ZM201.393 37.312V48H195.953C186.78 48 182.193 43.456 182.193 34.368V22.528H177.777V12.096H182.193V3.392H194.801V12.096H201.329V22.528H194.801V34.56C194.801 35.5413 195.014 36.2453 195.441 36.672C195.91 37.0987 196.678 37.312 197.745 37.312H201.393ZM231.685 2.88V29.056C231.685 31.488 232.239 33.3653 233.349 34.688C234.501 36.0107 236.229 36.672 238.533 36.672C240.837 36.672 242.565 36.0107 243.717 34.688C244.911 33.3227 245.509 31.4453 245.509 29.056V2.88H258.053V29.056C258.053 33.1947 257.178 36.736 255.429 39.68C253.679 42.5813 251.29 44.7787 248.261 46.272C245.274 47.7227 241.946 48.448 238.277 48.448C234.607 48.448 231.322 47.7227 228.421 46.272C225.562 44.7787 223.301 42.5813 221.637 39.68C220.015 36.7787 219.205 33.2373 219.205 29.056V2.88H231.685ZM280.255 48.448C277.012 48.448 274.111 47.9147 271.551 46.848C269.034 45.7387 267.028 44.2453 265.535 42.368C264.084 40.448 263.274 38.2933 263.103 35.904H275.263C275.434 37.056 275.967 37.952 276.863 38.592C277.759 39.232 278.868 39.552 280.191 39.552C281.215 39.552 282.026 39.3387 282.623 38.912C283.22 38.4853 283.519 37.9307 283.519 37.248C283.519 36.352 283.028 35.6907 282.047 35.264C281.066 34.8373 279.444 34.368 277.183 33.856C274.623 33.344 272.49 32.768 270.783 32.128C269.076 31.488 267.583 30.4427 266.303 28.992C265.066 27.5413 264.447 25.5787 264.447 23.104C264.447 20.9707 265.023 19.0507 266.175 17.344C267.327 15.5947 269.012 14.208 271.231 13.184C273.492 12.16 276.202 11.648 279.359 11.648C284.052 11.648 287.743 12.8 290.431 15.104C293.119 17.408 294.676 20.4373 295.103 24.192H283.775C283.562 23.04 283.05 22.1653 282.239 21.568C281.471 20.928 280.426 20.608 279.103 20.608C278.079 20.608 277.29 20.8 276.735 21.184C276.223 21.568 275.967 22.1013 275.967 22.784C275.967 23.6373 276.458 24.2987 277.439 24.768C278.42 25.1947 279.999 25.6427 282.175 26.112C284.778 26.6667 286.932 27.2853 288.639 27.968C290.388 28.6507 291.903 29.76 293.183 31.296C294.506 32.7893 295.167 34.8373 295.167 37.44C295.167 39.5307 294.548 41.408 293.311 43.072C292.116 44.736 290.388 46.0587 288.127 47.04C285.908 47.9787 283.284 48.448 280.255 48.448Z" fill="#828282"/>
</svg>
